<?xml-stylesheet type="text/css" href="../svg.css" ?>
<svg width="1920" height="1080" viewBox="0 0 1920 1080" 
preserveAspectRatio="xMinYMin slice"
fill="none" xmlns="http://www.w3.org/2000/svg">
<path class="back-building" d="M0 45.2563V90.5126H960H1920V45.2563V0H960H0V45.2563ZM0 93.1489C0 94.0272 0.312653 94.0277 960 94.0277C1919.69 94.0277 1920 94.0272 1920 93.1489C1920 92.2706 1919.69 92.2701 960 92.2701C0.312653 92.2701 0 92.2706 0 93.1489ZM935.626 292.555C935.367 292.636 935.156 293.179 935.156 293.763C935.156 294.807 935.086 294.825 930.937 294.825H926.719V296.143V297.461H922.734C919.505 297.461 918.75 297.586 918.75 298.12C918.75 298.643 918.073 298.779 915.469 298.779H912.187V300.038C912.187 301.2 912.023 301.317 910.03 301.574C908.843 301.726 907.683 301.741 907.451 301.607C907.22 301.473 907.031 302.068 907.031 302.928V304.491H903.984H900.937V313.718V322.945H894.361H887.786L887.916 404.451L888.047 485.956H884.648H881.25V483.539V481.123H878.203H875.156V479.365V477.608H872.344H869.531V474.752V471.896H866.953H864.375V469.479V467.063H860.39H856.406V447.071V427.079H854.062H851.719V447.071V467.063H847.969H844.219V469.479V471.896H841.64H839.062V474.752V477.608H836.25H833.437V479.365V481.123H830.39H827.344V483.539V485.956H823.824H820.303L820.312 529.784C820.317 553.89 820.319 573.958 820.317 574.382C820.313 575.102 819.061 575.151 800.625 575.151H780.937V511.001V446.851H777.422H773.906V443.336V439.821H758.437H742.969V430.38V420.94L728.32 420.824L713.672 420.708V411.481V402.254L705.596 402.133L697.52 402.014L697.393 393.566L697.265 385.118L687.308 384.999L677.35 384.881L677.23 356L677.109 327.12L670.664 326.997L664.219 326.875V355.887V384.898H657.89H651.562V393.466V402.034H642.422H633.281V411.481V420.928H622.509H611.737L611.611 430.264L611.484 439.601L589.57 439.716L567.656 439.83V507.49V575.151H551.719H535.781V526.613V478.076L530.508 477.952L525.234 477.827L525.103 472.242L524.972 466.657L520.884 466.531L516.797 466.404L516.665 461.021L516.533 455.639H513.97H511.406V452.783V449.927H509.765H508.125V447.29V444.654H506.25H504.375V442.677C504.375 440.993 504.236 440.7 503.437 440.7C502.656 440.7 502.5 440.407 502.5 438.942V437.185H467.578H432.656V438.942C432.656 440.524 432.539 440.7 431.484 440.7C430.408 440.7 430.312 440.861 430.312 442.677C430.312 444.644 430.303 444.654 428.672 444.654H427.031V447.29V449.927H425.391H423.75V452.783V455.639H421.186H418.623L418.491 461.021L418.359 466.404L414.272 466.531L410.184 466.657L410.053 472.242L409.922 477.827L404.883 477.952L399.844 478.077V526.614V575.151H388.828H377.812V632.061V688.971L369.726 688.851L361.641 688.731V632.05V575.37L341.016 575.151L320.391 574.931L320.268 556.806L320.146 538.682H309.37H298.594V500.236V461.79H289.453H280.312V446.396V431.002L275.742 431.127L271.172 431.253L271.049 446.522L270.925 461.79H257.338H243.75V500.231V538.672L225.586 538.786L207.422 538.902L207.312 556.477C207.252 566.143 207.199 574.299 207.195 574.601C207.189 575.02 205.23 575.151 198.984 575.151H190.781V548.348V521.546H183.516H176.25V514.736V507.925H165.94H155.63L155.51 464.317L155.391 420.708L149.18 420.585L142.969 420.463V424.854V429.246L137.93 429.371L132.891 429.496L132.799 433.23C132.748 435.284 132.695 437.303 132.682 437.716C132.66 438.351 132.059 438.487 128.789 438.595L124.922 438.723L124.786 442.567L124.651 446.412H118.81H112.969V449.707V453.002H108.984H105V449.707V446.412H99.1589H93.3178L93.1823 442.567L93.0469 438.723L88.9453 438.596L84.8437 438.469V433.872V429.276H79.9387H75.0337L74.8997 424.992L74.7656 420.708L68.5547 420.585L62.3437 420.463V507.26V594.058L49.1016 593.941L35.8594 593.824L35.8664 528.027L35.873 462.229H32.2336H28.5937V447.51V432.791H24.8437H21.0937V413.458V394.125H18.5156H15.9375V413.458V432.791H12.165H8.39203L8.43844 446.961C8.46422 454.754 8.47453 461.378 8.4614 461.68C8.44453 462.072 7.36359 462.229 4.69312 462.229H0.949219L1.24641 481.332C1.51828 498.819 1.47844 500.457 0.771562 500.711C0.05625 500.969 0 522.115 0 790.495V1080H960H1920L1919.88 778.516L1919.77 477.032L1900.31 463.236C1889.61 455.648 1880.61 449.334 1880.3 449.205C1879.82 449.007 1868.02 457.131 1845 473.502L1840.08 477.002L1839.96 509.16L1839.84 541.318H1800.47H1761.09V599.097V656.875H1726.87H1692.66V674.681V692.485L1684.1 692.366L1675.55 692.246L1675.42 674.568L1675.3 656.891L1664.17 656.774L1653.05 656.656V618.869V581.082L1642.85 580.964L1632.66 580.845V573.824V566.802H1624.92H1617.19V560.651V554.5H1607.83H1598.46L1598.33 560.541L1598.2 566.583L1589.88 566.703L1581.56 566.822V573.842V580.862H1573.12H1564.69V597.803V614.743L1552.5 614.609L1540.32 614.475L1540.2 635.565L1540.08 656.656L1519.57 656.77L1499.06 656.885V697.743V738.6H1492.03H1485V697.738V656.875H1443.52H1402.03V625.899V594.923H1392.66H1383.28V587.014V579.105H1375.55H1367.81V573.173V567.242H1357.73H1347.66V559.552V551.863H1341.8H1335.94V532.97V514.076H1328.2H1320.47V532.97V551.863H1314.61H1308.75V559.552V567.242H1298.67H1288.59V573.173V579.105H1281.1H1273.61L1273.49 586.904L1273.36 594.703L1263.85 594.822L1254.34 594.941L1254.39 618.329L1254.44 641.717L1252.53 641.852L1250.62 641.987V649.448V656.91L1246.52 656.783L1242.42 656.656L1242.3 585.146L1242.18 513.637H1197.42H1152.66V491.009V468.381H1147.27H1141.87V460.911V453.442H1139.56C1137.39 453.442 1137.24 453.37 1137.1 452.234C1136.97 451.127 1136.77 451.014 1134.73 450.891C1132.72 450.77 1132.5 450.653 1132.5 449.683C1132.5 448.744 1132.28 448.602 1130.74 448.557C1129.78 448.528 1128.72 448.537 1128.39 448.577C1128.07 448.617 1127.67 448.344 1127.52 447.97C1127.31 447.448 1126.5 447.29 1124.01 447.29C1121.12 447.29 1120.78 447.201 1120.78 446.431C1120.78 445.669 1120.4 445.557 1117.38 445.442C1114.26 445.324 1113.97 445.232 1113.83 444.325L1113.68 443.336H1102.03H1090.38L1090.23 444.325C1090.09 445.232 1089.8 445.324 1086.68 445.442C1083.67 445.557 1083.28 445.669 1083.28 446.431C1083.28 447.202 1082.94 447.29 1080 447.29C1077.4 447.29 1076.72 447.427 1076.72 447.95C1076.72 448.456 1076.12 448.609 1074.14 448.609C1071.7 448.609 1071.56 448.668 1071.56 449.707C1071.56 450.714 1071.39 450.806 1069.48 450.806C1067.57 450.806 1067.39 450.898 1067.26 452.014C1067.12 453.141 1066.94 453.231 1064.65 453.355L1062.19 453.488V460.934V468.381H1056.8H1051.41V541.758V615.134H1037.34H1023.28V595.142V575.151H1017.19H1011.09V449.048V322.945H1004.53H997.968V313.718V304.491H994.922H991.875V303.196C991.875 301.943 991.794 301.897 989.414 301.768C987.014 301.639 986.949 301.6 986.806 300.207L986.659 298.779H983.408C980.83 298.779 980.156 298.643 980.156 298.12C980.156 297.586 979.401 297.461 976.172 297.461H972.187V296.143V294.825H967.969C963.781 294.825 963.75 294.817 963.75 293.727C963.75 292.978 963.488 292.624 962.929 292.615C954.983 292.488 935.977 292.446 935.626 292.555Z" />
<path class="front-building" d="M578.672 582.802C569.613 589.26 546.054 605.928 520.312 624.09C513.48 628.91 507.804 632.924 507.697 633.01C507.591 633.095 507.554 712.651 507.615 809.799L507.726 986.433H495.269H482.812V936.142V885.851L479.18 885.723L475.547 885.595L475.405 883.288L475.263 880.981H470.366H465.469V878.345V875.709H459.141H452.812V872.645V869.581L446.133 869.459L439.453 869.338L439.324 862.198L439.195 855.058H434.988H430.781V862.308V869.557H426.094H421.406V872.633V875.709H415.805H410.203L410.062 878.235L409.922 880.762L406.523 880.891L403.125 881.02V850.342V819.665L392.461 812.145C386.595 808.009 376.744 801.052 370.569 796.684L359.34 788.743L357.913 789.755C339.485 802.811 324.113 813.649 320.52 816.117L315.963 819.248L315.95 872.084L315.937 924.919H291.96H267.984L268.171 859.781L268.359 794.643L264.258 794.516L260.156 794.389V778.149V761.909H255.937C252.879 761.909 251.716 761.758 251.71 761.36C251.706 761.058 251.709 751.27 251.719 739.61L251.736 718.41H248.915H246.094V740.159V761.909H241.875H237.656V778.166V794.423H233.437H229.219V899.216V1004.01H209.297H189.375V896.585V789.163L174.961 789.047L160.547 788.931L160.312 771.811L160.078 754.691L154.147 750.501C150.886 748.196 139.442 740.106 128.718 732.523L109.219 718.736V698.361V677.987H105.703H102.187L102.17 698.528L102.152 719.069L93.3806 725.226C88.5567 728.612 77.0681 736.717 67.8515 743.236L51.0937 755.09V772.12V789.15H36.7969H22.5V857.035V924.919H11.25H0V982.918V1077.36H926.953H1918.12L1920 915.033V789.15H1918.12H1916.25V746.97V704.789H1906.88H1897.5L1897.38 746.86L1897.27 788.931L1881.91 789.047L1866.56 789.162V803.656V818.15H1853.67H1840.78V780.583V743.015H1837.03H1833.28V727.637V712.259H1829.3H1825.31V692.267V672.275H1822.73H1820.16V692.267V712.259H1816.41H1812.67L1812.54 727.527L1812.42 742.796L1808.55 742.923L1804.69 743.051V811.591V880.13L1799.18 880.007L1793.67 879.883L1793.55 845.062L1793.43 810.241H1788.98H1784.53V804.968V799.696H1780.55H1776.56V794.862V790.029H1774.22H1771.87V787.393V784.757H1770.23H1768.59V782.12V779.484H1767.19C1765.86 779.484 1765.78 779.387 1765.78 777.727C1765.78 776.145 1765.66 775.969 1764.61 775.969C1763.58 775.969 1763.44 775.779 1763.44 774.431V772.893H1731.33H1699.22V774.431C1699.22 775.676 1699.04 775.969 1698.28 775.969C1697.5 775.969 1697.34 776.262 1697.34 777.727C1697.34 779.442 1697.3 779.484 1695.7 779.484H1694.06V782.12V784.757H1692.66H1691.25V787.393V790.029H1688.67H1686.09V794.862V799.696H1682.34H1678.59V804.968V810.241H1673.67H1668.75V867.8V925.359H1653.05H1637.34V835.286V745.212H1632.67H1627.99L1627.86 738.512L1627.73 731.811L1625.51 731.677C1623.66 731.566 1623.28 731.396 1623.28 730.689C1623.28 729.984 1622.95 729.834 1621.41 729.834C1619.72 729.834 1619.53 729.724 1619.53 728.735C1619.53 727.713 1619.37 727.637 1617.24 727.637C1615.63 727.637 1614.86 727.44 1614.67 726.978C1614.48 726.493 1613.66 726.319 1611.58 726.319C1609.06 726.319 1608.75 726.222 1608.75 725.44C1608.75 724.651 1608.44 724.561 1605.7 724.561C1602.97 724.561 1602.66 724.471 1602.66 723.683C1602.66 722.83 1602.34 722.804 1592.11 722.804C1581.87 722.804 1581.56 722.83 1581.56 723.683C1581.56 724.471 1581.25 724.561 1578.52 724.561C1575.78 724.561 1575.47 724.651 1575.47 725.44C1575.47 726.22 1575.16 726.319 1572.71 726.319C1570.68 726.319 1569.87 726.495 1569.67 726.978C1569.49 727.427 1568.74 727.637 1567.31 727.637C1565.5 727.637 1565.2 727.769 1565.07 728.626C1564.95 729.42 1564.58 729.641 1563.16 729.75C1561.79 729.858 1561.41 730.072 1561.41 730.739C1561.41 731.469 1561.07 731.591 1559.06 731.591H1556.72V738.402V745.212H1552.03H1547.35L1547.23 812.548L1547.11 879.883L1542.78 880.009L1538.45 880.135L1538.33 866.608L1538.2 853.081L1513.48 852.967L1488.75 852.853V844.078V835.302L1477.85 835.184L1466.95 835.066V825.18V815.294L1463.79 815.164L1460.62 815.034V775.949V736.864H1452.89H1445.16V775.962V815.06L1432.85 815.176L1420.55 815.294L1420.42 825.29L1420.29 835.286H1403.42H1386.55L1386.67 774.725L1386.8 714.165L1376.48 706.882C1370.81 702.875 1359.86 695.135 1352.14 689.681C1343.5 683.568 1337.92 679.903 1337.61 680.128C1337.34 680.327 1335 681.965 1332.42 683.768C1329.84 685.57 1323.73 689.884 1318.83 693.355C1313.93 696.825 1305.33 702.902 1299.73 706.859L1289.53 714.053L1289.53 716.561C1289.52 717.94 1289.53 736.604 1289.53 758.036C1289.54 783.817 1289.38 797.094 1289.07 797.276C1288.75 797.458 1288.59 811.503 1288.59 838.837V880.122L1280.04 880.003L1271.48 879.883L1271.37 798.707L1271.25 717.531H1267.5H1263.76L1263.64 702.482L1263.52 687.434L1259.65 687.306L1255.78 687.178V666.933V646.688L1254.73 646.953C1254.15 647.099 1252.99 647.221 1252.15 647.224L1250.62 647.23V667.222V687.214H1246.87H1243.12V702.373V717.531H1239.14H1235.16V780.363V843.194H1224.62H1214.09L1213.96 836.274L1213.83 829.354L1194.26 829.239L1174.69 829.125V787.168V745.212H1170.47H1166.25V728.735V712.259H1162.03H1157.81V690.729V669.199H1155H1152.19V690.711V712.223L1148.32 712.351L1144.45 712.478L1144.33 728.845L1144.21 745.212H1139.99H1135.78V835.066V924.919H1130.39H1125V888.011V851.103H1119.14H1113.28V844.293V837.482H1108.12H1102.97V831.111V824.74H1099.69H1096.41V821.225V817.71H1094.55H1092.7L1092.56 814.525L1092.42 811.339L1090.45 811.205L1088.48 811.071L1088.34 808.789C1088.22 806.804 1088.07 806.488 1087.15 806.365C1086.24 806.244 1086.09 805.963 1086.09 804.278V802.332H1044.14H1002.19V804.28C1002.19 806.078 1002.09 806.238 1000.9 806.367C999.696 806.497 999.6 806.661 999.468 808.813L999.326 811.12H997.475H995.625V814.415V817.71H993.515H991.406V821.205V824.7L988.242 824.83L985.078 824.96L984.948 831.221L984.818 837.482H979.909H975V844.293V851.103H968.672H962.344V928.434V1005.77H957.422H952.5V863.845V721.925H945.937H939.375V712.478V703.032H936.094H932.812V701.494V699.956H930H927.187V698.418V696.88H923.906C921.341 696.88 920.625 696.74 920.625 696.238C920.625 695.734 919.746 695.569 916.523 695.469C912.435 695.343 912.421 695.339 912.274 694.134L912.125 692.926H907.969H903.812L903.664 691.718L903.515 690.509H888.75H873.984L873.836 691.718L873.687 692.926H869.5H865.312V694.244V695.562H861.094C857.656 695.562 856.875 695.684 856.875 696.221C856.875 696.744 856.198 696.88 853.594 696.88H850.312V698.418V699.956H847.5H844.687V701.494V703.032H841.406H838.125V712.478V721.925H831.562H825V823.422V924.919H820.549H816.099L815.979 885.705L815.859 846.49L805.43 846.372L795 846.253V842.747V839.24H788.437H781.875V835.725V832.21H771.586H761.297L761.156 829.683L761.015 827.157L756.922 827.03L752.829 826.903L752.703 816.045L752.578 805.188L747.07 805.064L741.562 804.941V815.924V826.907L736.523 827.032L731.484 827.157L731.344 829.683L731.203 832.21H724.195H717.187V835.725V839.24H707.812H698.437V842.755V846.27H690.234H682.031V916.351V986.433H675.703H669.376L669.258 809.718L669.14 633.003L659.765 626.367C649.148 618.852 621.798 599.53 603.281 586.461C596.449 581.64 590.424 577.325 589.892 576.873C589.359 576.42 588.726 576.065 588.486 576.084C588.244 576.103 583.828 579.126 578.672 582.802ZM563.331 667.332L563.459 674.911H555.246H547.031V667.211V659.512L555.117 659.632L563.203 659.753L563.331 667.332ZM583.594 667.222V674.911H575.391H567.187V667.222V659.533H575.391H583.594V667.222ZM603.75 667.222V674.911H595.547H587.344V667.515C587.344 663.447 587.484 659.987 587.656 659.826C587.828 659.665 591.519 659.533 595.859 659.533H603.75V667.222ZM623.906 667.222V674.911H615.937H607.969V667.222V659.533H615.937H623.906V667.222ZM563.437 685.896V693.365H555.234H547.031V685.896V678.426H555.234H563.437V685.896ZM583.594 685.896V693.365H575.391H567.187V685.896V678.426H575.391H583.594V685.896ZM603.75 685.896V693.365H595.547H587.344V685.896V678.426H595.547H603.75V685.896ZM623.906 685.896V693.365H615.937H607.969V685.896V678.426H615.937H623.906V685.896ZM845.04 868.868L845.158 1002.69H842.033H838.908L839.218 888.121C839.389 825.109 839.529 764.819 839.53 754.146L839.531 734.739L842.226 734.893L844.922 735.047L845.04 868.868ZM863.007 868.898L863.1 1002.47L859.91 1002.6L856.719 1002.73L857.031 904.619C857.202 850.657 857.343 790.451 857.343 770.829L857.344 735.153L859.805 735.02C861.158 734.947 862.411 734.986 862.589 735.107C862.768 735.227 862.955 795.434 863.007 868.898ZM880.898 735.086C881.091 735.097 881.25 795.313 881.25 868.898V1002.69H878.126H875.002L875.312 882.19C875.482 815.914 875.622 755.655 875.623 748.28L875.625 734.87L878.086 734.968C879.44 735.021 880.705 735.074 880.898 735.086ZM898.866 735.215C898.947 735.291 899.048 795.454 899.091 868.911L899.17 1002.47L896.069 1002.6L892.969 1002.73V868.991C892.969 795.435 893.056 735.171 893.163 735.07C893.381 734.865 898.635 734.999 898.866 735.215ZM918.281 868.941V1002.69H915.234H912.187V868.93C912.187 745.2 912.245 735.16 912.957 735.029C913.381 734.951 914.752 734.955 916.004 735.039L918.281 735.191V868.941ZM936.08 868.898L936.118 1002.69H932.748H929.379L929.688 969.846C929.858 951.782 929.998 891.576 929.998 836.054L930 735.107H933.021H936.042L936.08 868.898ZM1319.53 751.144V758.833H1311.56H1303.59V751.144V743.455H1311.56H1319.53V751.144ZM1160.62 768.28V775.969H1152.42H1144.22V768.28V760.591H1152.42H1160.62V768.28ZM1567.19 847.698C1567.36 895.365 1567.5 955.671 1567.5 981.709V1029.05H1564.45H1561.41V895.041V761.03H1564.14H1566.88L1567.19 847.698ZM1585.2 895.151L1585.31 1029.05H1581.95H1578.59L1578.91 957.983C1579.08 918.894 1579.22 858.58 1579.22 823.95L1579.22 760.988L1582.15 761.119L1585.08 761.25L1585.2 895.151ZM1603.23 818.919C1603.32 850.757 1603.39 911.013 1603.38 952.82L1603.36 1028.83L1600.12 1028.97L1596.88 1029.1L1597.19 920.219C1597.36 860.335 1597.5 800.019 1597.5 786.185L1597.5 761.03H1600.27H1603.05L1603.23 818.919ZM1621.29 895.171L1621.41 1029.09L1618.24 1028.96L1615.08 1028.83L1615.1 981.16C1615.12 954.94 1615.17 894.675 1615.22 847.238L1615.31 760.988L1618.24 761.119L1621.17 761.25L1621.29 895.171ZM1319.53 770.268V777.747L1311.45 777.627L1303.36 777.507L1303.35 770.916C1303.35 767.291 1303.42 763.98 1303.52 763.557C1303.69 762.861 1304.46 762.788 1311.62 762.788H1319.53V770.268ZM1160.62 787.173V794.862H1152.42H1144.22V787.173V779.484H1152.42H1160.62V787.173ZM255 812.657V820.347H246.797H238.594V812.657V804.968H246.797H255V812.657ZM65.1562 815.733V823.422H56.9531H48.75V815.733V808.044H56.9531H65.1562V815.733ZM85.3125 815.733V823.422H77.1094H68.9062V815.733V808.044H77.1094H85.3125V815.733ZM255 831.551V839.24H246.797H238.594V831.551V823.862H246.797H255V831.551ZM65.1562 834.846V842.755H56.9531H48.75V834.846V826.937H56.9531H65.1562V834.846ZM85.2061 834.736L85.0781 842.535H77.1094H69.1406L69.0112 835.302C68.9405 831.324 68.9864 827.815 69.1139 827.503C69.2901 827.072 71.25 826.937 77.34 826.937H85.334L85.2061 834.736ZM358.125 836.384V844.073H349.922H341.719V836.384V828.695H349.922H358.125V836.384ZM377.812 836.384V844.073H369.609H361.406V836.384V828.695H369.609H377.812V836.384ZM1780.31 837.702V845.391H1772.11H1763.91V837.702V830.013H1772.11H1780.31V837.702ZM588.281 839.47V847.169L580.195 847.05L572.109 846.929L571.981 839.35L571.853 831.77H580.067H588.281V839.47ZM609.375 839.46V847.149H601.172H592.969V839.46V831.77H601.172H609.375V839.46ZM1443.75 842.535V850.225H1435.55H1427.34V842.535V834.846H1435.55H1443.75V842.535ZM1832.79 902.072L1832.85 964.464H1829.48H1826.1L1826.41 923.491C1826.58 900.957 1826.71 872.88 1826.72 861.099L1826.72 839.679H1829.73H1832.73L1832.79 902.072ZM1850.16 891.455C1850.16 919.932 1850.3 948.018 1850.47 953.869L1850.78 964.507L1847.54 964.375C1844.52 964.253 1844.3 964.176 1844.33 963.255C1844.35 962.711 1844.4 934.685 1844.45 900.973L1844.53 839.679H1847.34H1850.16V891.455ZM1868.32 902.157L1868.2 964.634L1865.39 964.512C1863.84 964.445 1862.5 964.321 1862.42 964.238C1862.33 964.154 1862.41 936.094 1862.6 901.883L1862.95 839.679H1865.69H1868.44L1868.32 902.157ZM1886.31 890.318C1886.34 918.169 1886.4 946.23 1886.44 952.674L1886.51 964.392L1884.34 964.538C1883.14 964.618 1881.82 964.62 1881.39 964.542C1880.68 964.411 1880.62 959.537 1880.62 902.039V839.679H1883.44H1886.25L1886.31 890.318ZM358.125 855.277V862.967H349.922H341.719V855.277V847.588H349.922H358.125V855.277ZM377.812 855.277V862.967H369.609H361.406V855.277V847.588H369.609H377.812V855.277ZM1780.21 856.705L1780.08 864.504H1772.11H1764.14L1764.01 857.271C1763.94 853.294 1763.99 849.784 1764.11 849.472C1764.29 849.041 1766.25 848.906 1772.34 848.906H1780.33L1780.21 856.705ZM1443.75 861.429V869.118H1435.55H1427.34V861.429V853.74H1435.55H1443.75V861.429ZM1072.39 869.008L1072.52 876.587H1064.09H1055.66L1055.87 869.008C1055.99 864.84 1056.09 861.375 1056.09 861.308C1056.09 861.242 1059.73 861.242 1064.18 861.308L1072.27 861.429L1072.39 869.008ZM1092.55 869.008L1092.68 876.587H1084.23H1075.78V869.191C1075.78 865.123 1075.93 861.659 1076.1 861.492C1076.28 861.326 1080.03 861.243 1084.42 861.309L1092.42 861.429L1092.55 869.008ZM737.578 871.754V879.443H729.609H721.64L721.511 872.21C721.44 868.233 721.488 864.718 721.618 864.401C721.803 863.949 723.566 863.85 729.716 863.945L737.578 864.065V871.754ZM758.004 868.349C758.068 876.342 757.914 878.984 757.368 879.3C757.076 879.469 753.453 879.571 749.317 879.526L741.797 879.443L741.669 871.644L741.541 863.845H749.755H757.969L758.004 868.349ZM358.125 874.171V881.86H349.922H341.719V874.171V866.482H349.922H358.125V874.171ZM377.908 873.989C377.984 878.118 377.959 881.578 377.851 881.678C377.744 881.778 374 881.86 369.531 881.86H361.406V874.464C361.406 870.396 361.547 866.936 361.719 866.775C361.89 866.613 365.572 866.482 369.9 866.482H377.77L377.908 873.989ZM1072.39 887.242L1072.27 894.822H1064.06H1055.86L1055.73 887.242L1055.6 879.663H1064.06H1072.52L1072.39 887.242ZM1092.55 887.242L1092.42 894.822H1084.22H1076.02L1075.89 887.242L1075.76 879.663H1084.22H1092.68L1092.55 887.242ZM737.812 890.867V898.556H729.609H721.406V890.867V883.178H729.609H737.812V890.867ZM758.203 890.867V898.337L749.883 898.457L741.562 898.577V890.867V883.158L749.883 883.278L758.203 883.398V890.867ZM357.539 885.803C357.985 885.811 358.125 887.651 358.125 893.504V901.193H349.922H341.719V893.54C341.719 888.835 341.899 885.831 342.187 885.741C342.547 885.629 350.61 885.661 357.539 885.803ZM377.871 890.757C377.904 893.476 377.923 896.887 377.914 898.337L377.897 900.973H369.769H361.641L361.512 893.394L361.384 885.814H369.598H377.812L377.871 890.757ZM1523.91 906.685V914.374H1515.7H1507.5V906.685V898.996H1515.7H1523.91V906.685ZM443.8 916.242L443.672 923.821L435.351 923.941L427.031 924.061V916.362V908.662H435.48H443.928L443.8 916.242ZM464.062 916.351V924.041H455.625H447.187V916.351V908.662H455.625H464.062V916.351ZM107.344 922.942V930.631H98.9062H90.4687V922.942V915.253H98.9062H107.344V922.942ZM127.5 922.942V930.631H119.062H110.625V922.942V915.253H119.062H127.5V922.942ZM1523.8 925.688L1523.67 933.487L1515.59 933.608L1507.5 933.728V925.809V917.889H1515.71H1523.93L1523.8 925.688ZM443.906 935.245V942.934H435.469H427.031V935.245V927.556H435.469H443.906V935.245ZM464.062 935.245V942.934H455.625H447.187V935.245V927.556H455.625H464.062V935.245ZM1024.58 939.089L1024.71 946.888H1016.26H1007.81V939.273C1007.81 935.084 1007.95 931.531 1008.11 931.377C1008.27 931.224 1012.02 931.142 1016.43 931.195L1024.45 931.29L1024.58 939.089ZM300.469 948.426V956.115H292.266H284.062V948.426V940.737H292.266H300.469V948.426ZM781.406 965.782V973.691H773.203H765V965.782V957.873H773.203H781.406V965.782ZM801.797 965.782V973.471L793.476 973.591L785.156 973.711V965.782V957.853L793.476 957.973L801.797 958.093V965.782ZM59.4248 971.604L59.5528 979.403H51.1045H42.6562V971.787C42.6562 967.598 42.8016 964.034 42.9792 963.868C43.1573 963.701 46.9012 963.619 51.2995 963.685L59.2969 963.805L59.4248 971.604ZM1613.44 1029.71C1613.44 1029.83 1613.33 1029.93 1613.2 1029.93C1613.07 1029.93 1612.97 1029.83 1612.97 1029.71C1612.97 1029.59 1613.07 1029.49 1613.2 1029.49C1613.33 1029.49 1613.44 1029.59 1613.44 1029.71ZM1614.37 1029.71C1614.37 1029.83 1614.27 1029.93 1614.14 1029.93C1614.01 1029.93 1613.91 1029.83 1613.91 1029.71C1613.91 1029.59 1614.01 1029.49 1614.14 1029.49C1614.27 1029.49 1614.37 1029.59 1614.37 1029.71ZM1561.41 1030.15C1561.41 1030.27 1561.3 1030.37 1561.17 1030.37C1561.04 1030.37 1560.94 1030.27 1560.94 1030.15C1560.94 1030.03 1561.04 1029.93 1561.17 1029.93C1561.3 1029.93 1561.41 1030.03 1561.41 1030.15ZM1616.25 1030.15C1616.25 1030.27 1616.14 1030.37 1616.02 1030.37C1615.89 1030.37 1615.78 1030.27 1615.78 1030.15C1615.78 1030.03 1615.89 1029.93 1616.02 1029.93C1616.14 1029.93 1616.25 1030.03 1616.25 1030.15ZM1620.47 1030.59C1620.47 1030.71 1620.36 1030.81 1620.23 1030.81C1620.11 1030.81 1620 1030.71 1620 1030.59C1620 1030.47 1620.11 1030.37 1620.23 1030.37C1620.36 1030.37 1620.47 1030.47 1620.47 1030.59ZM1621.41 1031.03C1621.41 1031.15 1621.3 1031.25 1621.17 1031.25C1621.04 1031.25 1620.94 1031.15 1620.94 1031.03C1620.94 1030.91 1621.04 1030.81 1621.17 1030.81C1621.3 1030.81 1621.41 1030.91 1621.41 1031.03Z" />
<!-- <defs>
<linearGradient id="paint0_linear_104_11" x1="960" y1="0" x2="960" y2="1080" gradientUnits="userSpaceOnUse">
<stop stop-color="#E65F27"/>
<stop offset="1" stop-color="#8A3A19"/>
</linearGradient>
<linearGradient id="paint1_linear_104_11" x1="960" y1="576.083" x2="960" y2="1040.92" gradientUnits="userSpaceOnUse">
<stop stop-color="#330C07"/>
<stop offset="0.837308" stop-color="#A82619"/>
</linearGradient>
</defs> -->
</svg>
