<?xml-stylesheet type="text/css" href="../css/svg.css"?>
<svg width="1920" height="1080" viewBox="0 0 1920 1080" preserveAspectRatio="xMinYMin slice" fill="none" xmlns="http://www.w3.org/2000/svg">
    <path class="back-building" d="M935.626 292.555C935.368 292.636 935.156 293.179 935.156 293.763C935.156 294.807 935.086 294.825 930.937 294.825H926.719V296.143V297.461H922.734C919.505 297.461 918.75 297.586 918.75 298.12C918.75 298.643 918.073 298.779 915.469 298.779H912.187V300.038C912.187 301.2 912.023 301.317 910.03 301.574C908.843 301.726 907.683 301.741 907.452 301.607C907.22 301.473 907.031 302.068 907.031 302.928V304.491H903.984H900.937V313.718V322.945H894.361H887.786L887.916 404.451L888.047 485.956H884.648H881.25V483.539V481.123H878.203H875.156V479.365V477.608H872.344H869.531V474.752V471.896H866.953H864.375V469.479V467.063H860.391H856.406V447.071V427.079H854.062H851.719V447.071V467.063H847.969H844.219V469.479V471.896H841.641H839.062V474.752V477.608H836.25H833.437V479.365V481.123H830.391H827.344V483.539V485.956H823.824H820.303L820.312 529.784C820.317 553.89 820.319 573.958 820.317 574.382C820.313 575.102 819.061 575.151 800.625 575.151H780.937V511.001V446.851H777.422H773.906V443.336V439.821H758.437H742.969V430.38V420.94L728.32 420.824L713.672 420.708V411.481V402.254L705.596 402.133L697.52 402.014L697.393 393.566L697.266 385.118L687.308 384.999L677.35 384.881L677.23 356L677.109 327.12L670.664 326.997L664.219 326.875V355.887V384.898H657.891H651.562V393.466V402.034H642.422H633.281V411.481V420.928H622.509H611.737L611.611 430.264L611.484 439.601L589.57 439.716L567.656 439.83V507.49V575.151H551.719H535.781V526.613V478.076L530.508 477.952L525.234 477.828L525.103 472.242L524.972 466.657L520.884 466.531L516.797 466.404L516.665 461.021L516.533 455.639H513.97H511.406V452.783V449.927H509.766H508.125V447.29V444.654H506.25H504.375V442.677C504.375 440.993 504.236 440.7 503.438 440.7C502.656 440.7 502.5 440.407 502.5 438.942V437.185H467.578H432.656V438.942C432.656 440.524 432.539 440.7 431.484 440.7C430.408 440.7 430.312 440.861 430.312 442.677C430.312 444.644 430.304 444.654 428.672 444.654H427.031V447.29V449.927H425.391H423.75V452.783V455.639H421.186H418.623L418.491 461.021L418.359 466.404L414.272 466.531L410.184 466.657L410.053 472.242L409.922 477.828L404.883 477.952L399.844 478.077V526.614V575.151H388.828H377.813V632.061V688.971L369.727 688.851L361.641 688.731V632.05V575.37L341.016 575.151L320.391 574.931L320.268 556.806L320.146 538.682H309.37H298.594V500.236V461.79H289.453H280.313V446.396V431.002L275.742 431.127L271.172 431.253L271.049 446.522L270.925 461.79H257.338H243.75V500.231V538.672L225.586 538.786L207.422 538.902L207.312 556.477C207.252 566.143 207.199 574.299 207.195 574.601C207.189 575.02 205.231 575.151 198.984 575.151H190.781V548.348V521.546H183.516H176.25V514.736V507.925H165.94H155.63L155.51 464.317L155.391 420.708L149.18 420.585L142.969 420.463V424.854V429.246L137.93 429.371L132.891 429.495L132.799 433.23C132.748 435.284 132.695 437.303 132.682 437.716C132.66 438.351 132.06 438.487 128.789 438.595L124.922 438.723L124.786 442.567L124.651 446.412H118.81H112.969V449.707V453.002H108.984H105V449.707V446.412H99.159H93.3179L93.1824 442.567L93.047 438.723L88.9454 438.596L84.8438 438.469V433.872V429.276H79.9388H75.0338L74.8998 424.992L74.7657 420.708L68.5548 420.585L62.3438 420.463V507.26V594.058L49.1017 593.941L35.8595 593.824L35.8665 528.027L35.8731 462.229H32.2337H28.5938V447.51V432.791H24.8439H21.0939V413.458V394.125H18.5157H15.9376V413.458V432.791H12.1651H8.39214L8.43854 446.961C8.46432 454.754 8.47464 461.378 8.46151 461.68C8.44464 462.072 7.3637 462.229 4.69323 462.229H0.949326L1.24651 481.332C1.51839 498.819 1.47854 500.457 0.771669 500.711C0.0563571 500.969 0.000106812 522.115 0.000106812 790.495V1080H960H1920L1919.88 778.516L1919.77 477.032L1900.31 463.236C1889.61 455.648 1880.61 449.335 1880.3 449.205C1879.82 449.007 1868.02 457.131 1845 473.502L1840.08 477.002L1839.96 509.16L1839.84 541.318H1800.47H1761.09V599.097V656.875H1726.87H1692.66V674.681V692.485L1684.1 692.366L1675.55 692.246L1675.42 674.568L1675.3 656.891L1664.17 656.774L1653.05 656.656V618.869V581.082L1642.85 580.964L1632.66 580.845V573.824V566.802H1624.92H1617.19V560.651V554.5H1607.83H1598.46L1598.33 560.541L1598.2 566.583L1589.88 566.703L1581.56 566.823V573.842V580.862H1573.12H1564.69V597.803V614.743L1552.5 614.609L1540.32 614.475L1540.2 635.565L1540.08 656.656L1519.57 656.77L1499.06 656.885V697.743V738.6H1492.03H1485V697.738V656.875H1443.52H1402.03V625.899V594.923H1392.66H1383.28V587.014V579.105H1375.55H1367.81V573.173V567.242H1357.73H1347.66V559.552V551.863H1341.8H1335.94V532.97V514.076H1328.2H1320.47V532.97V551.863H1314.61H1308.75V559.552V567.242H1298.67H1288.59V573.173V579.105H1281.1H1273.61L1273.49 586.904L1273.36 594.703L1263.85 594.822L1254.34 594.941L1254.39 618.329L1254.44 641.717L1252.53 641.852L1250.62 641.987V649.448V656.91L1246.52 656.783L1242.42 656.656L1242.3 585.146L1242.18 513.637H1197.42H1152.66V491.009V468.381H1147.27H1141.87V460.911V453.442H1139.56C1137.39 453.442 1137.24 453.37 1137.1 452.234C1136.97 451.127 1136.77 451.014 1134.73 450.891C1132.72 450.77 1132.5 450.653 1132.5 449.683C1132.5 448.743 1132.28 448.602 1130.74 448.557C1129.78 448.528 1128.72 448.537 1128.39 448.577C1128.07 448.617 1127.67 448.344 1127.52 447.97C1127.31 447.448 1126.5 447.29 1124.01 447.29C1121.12 447.29 1120.78 447.201 1120.78 446.431C1120.78 445.669 1120.4 445.557 1117.38 445.442C1114.26 445.324 1113.97 445.232 1113.83 444.325L1113.68 443.336H1102.03H1090.38L1090.23 444.325C1090.09 445.232 1089.8 445.324 1086.68 445.442C1083.67 445.557 1083.28 445.669 1083.28 446.431C1083.28 447.202 1082.94 447.29 1080 447.29C1077.4 447.29 1076.72 447.427 1076.72 447.95C1076.72 448.456 1076.12 448.609 1074.14 448.609C1071.7 448.609 1071.56 448.668 1071.56 449.707C1071.56 450.714 1071.39 450.806 1069.48 450.806C1067.57 450.806 1067.39 450.898 1067.26 452.014C1067.12 453.141 1066.94 453.231 1064.65 453.355L1062.19 453.488V460.934V468.381H1056.8H1051.41V541.758V615.134H1037.34H1023.28V595.142V575.151H1017.19H1011.09V449.048V322.945H1004.53H997.969V313.718V304.491H994.922H991.875V303.196C991.875 301.943 991.794 301.897 989.414 301.768C987.014 301.639 986.949 301.6 986.806 300.207L986.659 298.779H983.408C980.83 298.779 980.156 298.643 980.156 298.12C980.156 297.586 979.401 297.461 976.172 297.461H972.187V296.143V294.825H967.969C963.781 294.825 963.75 294.817 963.75 293.727C963.75 292.978 963.488 292.624 962.93 292.615C954.983 292.488 935.977 292.446 935.626 292.555Z" fill="url(#paint0_linear_104_11)" />
    <path class="front-building" d="M578.672 582.755C569.613 589.248 546.054 606.006 520.313 624.267C513.481 629.113 507.804 633.149 507.698 633.235C507.592 633.321 507.555 713.308 507.616 810.984L507.726 988.576H495.27H482.813V938.013V887.449L479.18 887.32L475.547 887.191L475.405 884.872L475.263 882.552H470.366H465.469V879.902V877.251H459.141H452.813V874.171V871.091L446.133 870.968L439.453 870.846L439.324 863.667L439.195 856.488H434.988H430.781V863.777V871.066H426.094H421.406V874.159V877.251H415.805H410.203L410.063 879.791L409.922 882.331L406.524 882.461L403.125 882.591V851.747V820.903L392.461 813.343C386.596 809.184 376.744 802.189 370.569 797.798L359.341 789.814L357.913 790.831C339.485 803.958 324.113 814.854 320.521 817.336L315.963 820.484L315.95 873.607L315.938 926.729H291.961H267.984L268.172 861.237L268.359 795.745L264.258 795.618L260.156 795.49V779.162V762.834H255.938C252.88 762.834 251.717 762.682 251.71 762.282C251.706 761.978 251.71 752.137 251.719 740.414L251.736 719.099H248.915H246.094V740.966V762.834H241.875H237.656V779.179V795.524H233.438H229.219V900.886V1006.25H209.297H189.375V898.241V790.236L174.961 790.119L160.547 790.002L160.313 772.789L160.078 755.576L154.148 751.364C150.886 749.047 139.442 740.913 128.718 733.288L109.219 719.426V698.941V678.456H105.703H102.188L102.17 699.109L102.152 719.762L93.3808 725.952C88.5568 729.356 77.0682 737.505 67.8517 744.06L51.0939 755.978V773.101V790.223H36.797H22.5001V858.476V926.729H11.2501H0.00012207V985.042V1080H926.953H1920V916.789V790.223H1918.13H1916.25V747.814V705.404H1906.88H1897.5L1897.39 747.703L1897.27 790.002L1881.91 790.119L1866.56 790.235V804.808V819.38H1853.67H1840.78V781.609V743.838H1837.03H1833.28V728.376V712.914H1829.3H1825.31V692.814V672.713H1822.73H1820.16V692.814V712.914H1816.41H1812.67L1812.55 728.266L1812.42 743.617L1808.55 743.745L1804.69 743.874V812.785V881.697L1799.18 881.572L1793.67 881.448L1793.55 846.438L1793.43 811.428H1788.98H1784.53V806.127V800.826H1780.55H1776.56V795.966V791.107H1774.22H1771.88V788.456V785.806H1770.23H1768.59V783.155V780.504H1767.19C1765.86 780.504 1765.78 780.406 1765.78 778.737C1765.78 777.147 1765.66 776.97 1764.61 776.97C1763.58 776.97 1763.44 776.779 1763.44 775.424V773.878H1731.33H1699.22V775.424C1699.22 776.676 1699.04 776.97 1698.28 776.97C1697.5 776.97 1697.34 777.265 1697.34 778.737C1697.34 780.462 1697.3 780.504 1695.7 780.504H1694.06V783.155V785.806H1692.66H1691.25V788.456V791.107H1688.67H1686.09V795.966V800.826H1682.34H1678.59V806.127V811.428H1673.67H1668.75V869.299V927.171H1653.05H1637.34V836.609V746.047H1632.67H1627.99L1627.86 739.31L1627.73 732.573L1625.51 732.438C1623.66 732.327 1623.28 732.156 1623.28 731.444C1623.28 730.736 1622.95 730.585 1621.41 730.585C1619.72 730.585 1619.53 730.474 1619.53 729.48C1619.53 728.453 1619.37 728.376 1617.24 728.376C1615.63 728.376 1614.86 728.178 1614.67 727.713C1614.48 727.226 1613.66 727.051 1611.58 727.051C1609.06 727.051 1608.75 726.953 1608.75 726.167C1608.75 725.374 1608.44 725.284 1605.7 725.284C1602.97 725.284 1602.66 725.193 1602.66 724.4C1602.66 723.543 1602.34 723.517 1592.11 723.517C1581.88 723.517 1581.56 723.543 1581.56 724.4C1581.56 725.193 1581.25 725.284 1578.52 725.284C1575.78 725.284 1575.47 725.374 1575.47 726.167C1575.47 726.951 1575.16 727.051 1572.71 727.051C1570.68 727.051 1569.87 727.228 1569.67 727.713C1569.49 728.165 1568.74 728.376 1567.31 728.376C1565.5 728.376 1565.2 728.509 1565.07 729.37C1564.95 730.168 1564.58 730.391 1563.16 730.501C1561.79 730.609 1561.41 730.824 1561.41 731.495C1561.41 732.229 1561.07 732.352 1559.06 732.352H1556.72V739.199V746.047H1552.03H1547.35L1547.23 813.747L1547.11 881.448L1542.78 881.575L1538.45 881.702L1538.33 868.101L1538.2 854.5L1513.48 854.386L1488.75 854.271V845.448V836.625L1477.85 836.506L1466.95 836.388V826.448V816.508L1463.79 816.377L1460.63 816.247V776.95V737.653H1452.89H1445.16V776.963V816.273L1432.85 816.39L1420.55 816.508L1420.42 826.558L1420.29 836.609H1403.42H1386.55L1386.67 775.72L1386.8 714.831L1376.48 707.508C1370.81 703.48 1359.86 695.698 1352.15 690.214C1343.5 684.068 1337.92 680.383 1337.61 680.609C1337.34 680.81 1335 682.457 1332.42 684.269C1329.84 686.08 1323.73 690.418 1318.83 693.908C1313.93 697.397 1305.33 703.507 1299.73 707.485L1289.53 714.718L1289.53 717.24C1289.52 718.627 1289.53 737.392 1289.53 758.94C1289.54 784.861 1289.38 798.21 1289.07 798.393C1288.75 798.576 1288.59 812.697 1288.59 840.179V881.689L1280.04 881.568L1271.48 881.448L1271.37 799.832L1271.25 718.215H1267.5H1263.76L1263.64 703.085L1263.52 687.954L1259.65 687.826L1255.78 687.698V667.343V646.988L1254.73 647.254C1254.15 647.401 1252.99 647.523 1252.15 647.527L1250.63 647.533V667.633V687.733H1246.88H1243.13V702.974V718.215H1239.14H1235.16V781.388V844.56H1224.62H1214.09L1213.96 837.603L1213.83 830.645L1194.26 830.53L1174.69 830.414V788.23V746.047H1170.47H1166.25V729.48V712.914H1162.03H1157.81V691.268V669.621H1155H1152.19V691.25V712.878L1148.32 713.007L1144.45 713.135L1144.33 729.591L1144.21 746.047H1139.99H1135.78V836.388V926.729H1130.39H1125V889.621V852.512H1119.14H1113.28V845.665V838.818H1108.13H1102.97V832.412V826.006H1099.69H1096.41V822.472V818.938H1094.55H1092.7L1092.56 815.735L1092.42 812.532L1090.45 812.398L1088.48 812.263L1088.34 809.968C1088.22 807.972 1088.07 807.654 1087.15 807.532C1086.24 807.41 1086.09 807.127 1086.09 805.433V803.476H1044.14H1002.19V805.435C1002.19 807.243 1002.09 807.404 1000.9 807.533C999.696 807.664 999.6 807.829 999.468 809.992L999.326 812.312H997.476H995.625V815.625V818.938H993.516H991.406V822.452V825.966L988.242 826.096L985.078 826.227L984.948 832.522L984.818 838.818H979.909H975V845.665V852.512H968.672H962.344V930.263V1008.01H957.422H952.5V865.323V722.633H945.938H939.375V713.135V703.637H936.094H932.813V702.091V700.545H930H927.188V698.999V697.452H923.906C921.341 697.452 920.625 697.311 920.625 696.807C920.625 696.3 919.747 696.134 916.524 696.034C912.436 695.907 912.422 695.902 912.274 694.691L912.125 693.476H907.969H903.812L903.664 692.262L903.516 691.047H888.75H873.984L873.836 692.262L873.688 693.476H869.5H865.313V694.802V696.127H861.094C857.657 696.127 856.875 696.25 856.875 696.79C856.875 697.315 856.198 697.452 853.594 697.452H850.313V698.999V700.545H847.5H844.688V702.091V703.637H841.406H838.125V713.135V722.633H831.563H825V824.681V926.729H820.549H816.099L815.979 887.301L815.859 847.874L805.43 847.755L795 847.636V844.11V840.585H788.438H781.875V837.05V833.516H771.586H761.297L761.156 830.976L761.016 828.436L756.922 828.308L752.829 828.181L752.703 817.264L752.578 806.348L747.07 806.223L741.563 806.099V817.142V828.185L736.524 828.31L731.484 828.436L731.344 830.976L731.203 833.516H724.195H717.188V837.05V840.585H707.813H698.438V844.119V847.653H690.234H682.031V918.115V988.576H675.704H669.376L669.258 810.902L669.141 633.229L659.766 626.557C649.149 619.001 621.798 599.573 603.281 586.434C596.449 581.586 590.424 577.248 589.892 576.794C589.36 576.339 588.727 575.982 588.486 576.001C588.244 576.019 583.828 579.059 578.672 582.755ZM563.332 667.744L563.46 675.364H555.246H547.031V667.623V659.881L555.117 660.002L563.203 660.123L563.332 667.744ZM583.594 667.633V675.364H575.391H567.188V667.633V659.902H575.391H583.594V667.633ZM603.75 667.633V675.364H595.547H587.344V667.928C587.344 663.837 587.484 660.359 587.656 660.197C587.828 660.035 591.519 659.902 595.86 659.902H603.75V667.633ZM623.906 667.633V675.364H615.938H607.969V667.633V659.902H615.938H623.906V667.633ZM563.438 686.408V693.918H555.234H547.031V686.408V678.898H555.234H563.438V686.408ZM583.594 686.408V693.918H575.391H567.188V686.408V678.898H575.391H583.594V686.408ZM603.75 686.408V693.918H595.547H587.344V686.408V678.898H595.547H603.75V686.408ZM623.906 686.408V693.918H615.938H607.969V686.408V678.898H615.938H623.906V686.408ZM845.04 870.374L845.158 1004.92H842.033H838.908L839.218 889.731C839.389 826.376 839.529 765.76 839.53 755.029L839.531 735.516L842.227 735.671L844.922 735.826L845.04 870.374ZM863.007 870.404L863.101 1004.7L859.91 1004.83L856.719 1004.97L857.031 906.319C857.203 852.064 857.343 791.531 857.343 771.802L857.344 735.932L859.805 735.799C861.159 735.725 862.412 735.764 862.59 735.886C862.768 736.007 862.955 796.54 863.007 870.404ZM880.899 735.865C881.092 735.877 881.25 796.419 881.25 870.404V1004.92H878.126H875.002L875.312 883.767C875.483 817.132 875.623 756.546 875.624 749.131L875.625 735.648L878.086 735.746C879.44 735.8 880.705 735.854 880.899 735.865ZM898.866 735.995C898.947 736.071 899.048 796.561 899.092 870.417L899.17 1004.7L896.07 1004.83L892.969 1004.96V870.497C892.969 796.542 893.057 735.95 893.163 735.849C893.381 735.643 898.636 735.778 898.866 735.995ZM918.281 870.447V1004.92H915.234H912.188V870.436C912.188 746.034 912.245 735.94 912.958 735.808C913.382 735.729 914.753 735.734 916.005 735.818L918.281 735.971V870.447ZM936.08 870.404L936.118 1004.92H932.748H929.379L929.688 971.9C929.858 953.737 929.998 893.204 929.999 837.382L930 735.886H933.021H936.042L936.08 870.404ZM1319.53 752.01V759.741H1311.56H1303.59V752.01V744.28H1311.56H1319.53V752.01ZM1160.63 769.239V776.97H1152.42H1144.22V769.239V761.508H1152.42H1160.63V769.239ZM1567.19 849.089C1567.36 897.014 1567.5 957.647 1567.5 983.827V1031.43H1564.45H1561.41V896.689V761.95H1564.14H1566.88L1567.19 849.089ZM1585.2 896.799L1585.31 1031.43H1581.95H1578.59L1578.91 959.972C1579.08 920.671 1579.22 860.029 1579.22 825.212L1579.22 761.908L1582.15 762.039L1585.08 762.171L1585.2 896.799ZM1603.23 820.153C1603.32 852.165 1603.39 912.747 1603.38 954.781L1603.36 1031.21L1600.12 1031.34L1596.88 1031.47L1597.19 922.003C1597.36 861.794 1597.5 801.151 1597.5 787.241L1597.5 761.95H1600.28H1603.05L1603.23 820.153ZM1621.29 896.82L1621.41 1031.47L1618.24 1031.34L1615.08 1031.21L1615.1 983.275C1615.12 956.913 1615.17 896.32 1615.22 848.626L1615.31 761.908L1618.24 762.039L1621.17 762.171L1621.29 896.82ZM1319.53 771.238V778.758L1311.45 778.637L1303.36 778.516L1303.35 771.89C1303.35 768.245 1303.42 764.916 1303.52 764.49C1303.69 763.792 1304.46 763.717 1311.62 763.717H1319.53V771.238ZM1160.63 788.235V795.966H1152.42H1144.22V788.235V780.504H1152.42H1160.63V788.235ZM255 813.858V821.589H246.797H238.594V813.858V806.127H246.797H255V813.858ZM65.1564 816.95V824.681H56.9532H48.7501V816.95V809.219H56.9532H65.1564V816.95ZM85.3126 816.95V824.681H77.1095H68.9064V816.95V809.219H77.1095H85.3126V816.95ZM255 832.854V840.585H246.797H238.594V832.854V825.123H246.797H255V832.854ZM65.1564 836.167V844.119H56.9532H48.7501V836.167V828.215H56.9532H65.1564V836.167ZM85.2062 836.056L85.0782 843.898H77.1095H69.1407L69.0114 836.625C68.9406 832.626 68.9865 829.097 69.114 828.784C69.2903 828.351 71.2501 828.215 77.3401 828.215H85.3342L85.2062 836.056ZM358.125 837.713V845.444H349.922H341.719V837.713V829.982H349.922H358.125V837.713ZM377.813 837.713V845.444H369.609H361.406V837.713V829.982H369.609H377.813V837.713ZM1780.31 839.038V846.769H1772.11H1763.91V839.038V831.307H1772.11H1780.31V839.038ZM588.281 840.816V848.557L580.195 848.436L572.109 848.315L571.981 840.695L571.853 833.075H580.067H588.281V840.816ZM609.375 840.805V848.536H601.172H592.969V840.805V833.075H601.172H609.375V840.805ZM1443.75 843.898V851.629H1435.55H1427.34V843.898V836.167H1435.55H1443.75V843.898ZM1832.79 903.757L1832.85 966.488H1829.48H1826.1L1826.41 925.293C1826.58 902.636 1826.71 874.407 1826.72 862.562L1826.72 841.026H1829.73H1832.73L1832.79 903.757ZM1850.16 893.083C1850.16 921.714 1850.3 949.953 1850.47 955.836L1850.78 966.532L1847.54 966.399C1844.52 966.276 1844.3 966.199 1844.33 965.273C1844.35 964.726 1844.4 936.547 1844.45 902.653L1844.53 841.026H1847.34H1850.16V893.083ZM1868.32 903.843L1868.2 966.659L1865.39 966.536C1863.84 966.469 1862.51 966.345 1862.42 966.261C1862.33 966.176 1862.41 937.964 1862.6 903.567L1862.95 841.026H1865.69H1868.44L1868.32 903.843ZM1886.31 891.94C1886.34 919.942 1886.4 948.155 1886.44 954.634L1886.51 966.415L1884.34 966.562C1883.14 966.643 1881.82 966.645 1881.4 966.566C1880.69 966.434 1880.63 961.534 1880.63 903.725V841.026H1883.44H1886.25L1886.31 891.94ZM358.125 856.709V864.44H349.922H341.719V856.709V848.978H349.922H358.125V856.709ZM377.813 856.709V864.44H369.609H361.406V856.709V848.978H369.609H377.813V856.709ZM1780.21 858.145L1780.08 865.986H1772.11H1764.14L1764.01 858.714C1763.94 854.714 1763.99 851.186 1764.11 850.872C1764.29 850.439 1766.25 850.303 1772.34 850.303H1780.33L1780.21 858.145ZM1443.75 862.894V870.625H1435.55H1427.34V862.894V855.163H1435.55H1443.75V862.894ZM1072.39 870.514L1072.52 878.135H1064.09H1055.66L1055.87 870.514C1055.99 866.323 1056.09 862.839 1056.09 862.773C1056.09 862.706 1059.73 862.706 1064.18 862.773L1072.27 862.894L1072.39 870.514ZM1092.55 870.514L1092.68 878.135H1084.23H1075.78V870.698C1075.78 866.608 1075.93 863.125 1076.1 862.957C1076.28 862.79 1080.03 862.707 1084.42 862.773L1092.42 862.894L1092.55 870.514ZM737.578 873.275V881.006H729.609H721.641L721.511 873.734C721.441 869.734 721.488 866.201 721.618 865.882C721.803 865.428 723.566 865.328 729.716 865.423L737.578 865.544V873.275ZM758.005 869.852C758.068 877.888 757.914 880.544 757.368 880.862C757.076 881.032 753.453 881.134 749.317 881.089L741.797 881.006L741.669 873.165L741.541 865.323H749.755H757.969L758.005 869.852ZM358.125 875.705V883.436H349.922H341.719V875.705V867.974H349.922H358.125V875.705ZM377.908 875.522C377.985 879.673 377.959 883.152 377.852 883.253C377.744 883.354 374 883.436 369.531 883.436H361.406V876C361.406 871.909 361.547 868.43 361.719 868.269C361.891 868.107 365.573 867.974 369.901 867.974H377.77L377.908 875.522ZM1072.39 888.848L1072.27 896.468H1064.06H1055.86L1055.73 888.848L1055.6 881.227H1064.06H1072.52L1072.39 888.848ZM1092.55 888.848L1092.42 896.468H1084.22H1076.02L1075.89 888.848L1075.76 881.227H1084.22H1092.68L1092.55 888.848ZM737.813 892.492V900.223H729.609H721.406V892.492V884.761H729.609H737.813V892.492ZM758.203 892.492V900.002L749.883 900.123L741.563 900.243V892.492V884.741L749.883 884.861L758.203 884.982V892.492ZM357.539 887.4C357.985 887.409 358.125 889.259 358.125 895.143V902.874H349.922H341.719V895.179C341.719 890.448 341.899 887.429 342.187 887.338C342.547 887.225 350.61 887.257 357.539 887.4ZM377.872 892.382C377.904 895.115 377.923 898.544 377.914 900.002L377.897 902.653H369.769H361.641L361.512 895.032L361.384 887.412H369.598H377.813L377.872 892.382ZM1523.91 908.396V916.127H1515.7H1507.5V908.396V900.665H1515.7H1523.91V908.396ZM443.8 918.004L443.672 925.625L435.352 925.745L427.031 925.866V918.125V910.384H435.48H443.928L443.8 918.004ZM464.063 918.115V925.845H455.625H447.188V918.115V910.384H455.625H464.063V918.115ZM107.344 924.741V932.472H98.9064H90.4689V924.741V917.01H98.9064H107.344V924.741ZM127.5 924.741V932.472H119.063H110.625V924.741V917.01H119.063H127.5V924.741ZM1523.8 927.502L1523.67 935.343L1515.59 935.464L1507.5 935.585V927.623V919.661H1515.71H1523.93L1523.8 927.502ZM443.906 937.11V944.841H435.469H427.031V937.11V929.38H435.469H443.906V937.11ZM464.063 937.11V944.841H455.625H447.188V937.11V929.38H455.625H464.063V937.11ZM1024.58 940.976L1024.71 948.817H1016.26H1007.81V941.16C1007.81 936.948 1007.95 933.377 1008.11 933.222C1008.27 933.068 1012.02 932.985 1016.43 933.038L1024.45 933.135L1024.58 940.976ZM300.469 950.363V958.094H292.266H284.063V950.363V942.633H292.266H300.469V950.363ZM781.406 967.813V975.765H773.203H765V967.813V959.861H773.203H781.406V967.813ZM801.797 967.813V975.544L793.477 975.665L785.156 975.785V967.813V959.841L793.477 959.962L801.797 960.082V967.813ZM59.425 973.667L59.5529 981.508H51.1047H42.6564V973.851C42.6564 969.639 42.8017 966.056 42.9793 965.889C43.1575 965.721 46.9014 965.638 51.2997 965.705L59.297 965.825L59.425 973.667ZM1613.44 1032.09C1613.44 1032.21 1613.33 1032.31 1613.2 1032.31C1613.07 1032.31 1612.97 1032.21 1612.97 1032.09C1612.97 1031.97 1613.07 1031.87 1613.2 1031.87C1613.33 1031.87 1613.44 1031.97 1613.44 1032.09ZM1614.38 1032.09C1614.38 1032.21 1614.27 1032.31 1614.14 1032.31C1614.01 1032.31 1613.91 1032.21 1613.91 1032.09C1613.91 1031.97 1614.01 1031.87 1614.14 1031.87C1614.27 1031.87 1614.38 1031.97 1614.38 1032.09ZM1561.41 1032.53C1561.41 1032.65 1561.3 1032.75 1561.17 1032.75C1561.04 1032.75 1560.94 1032.65 1560.94 1032.53C1560.94 1032.41 1561.04 1032.31 1561.17 1032.31C1561.3 1032.31 1561.41 1032.41 1561.41 1032.53ZM1616.25 1032.53C1616.25 1032.65 1616.14 1032.75 1616.02 1032.75C1615.89 1032.75 1615.78 1032.65 1615.78 1032.53C1615.78 1032.41 1615.89 1032.31 1616.02 1032.31C1616.14 1032.31 1616.25 1032.41 1616.25 1032.53ZM1620.47 1032.97C1620.47 1033.1 1620.36 1033.19 1620.23 1033.19C1620.11 1033.19 1620 1033.1 1620 1032.97C1620 1032.85 1620.11 1032.75 1620.23 1032.75C1620.36 1032.75 1620.47 1032.85 1620.47 1032.97ZM1621.41 1033.42C1621.41 1033.54 1621.3 1033.64 1621.17 1033.64C1621.04 1033.64 1620.94 1033.54 1620.94 1033.42C1620.94 1033.29 1621.04 1033.19 1621.17 1033.19C1621.3 1033.19 1621.41 1033.29 1621.41 1033.42Z" fill="url(#paint1_linear_104_11)" />
    <!-- <defs>
        <linearGradient id="paint0_linear_104_11" x1="960" y1="-4.23924e-05" x2="960" y2="1080" gradientUnits="userSpaceOnUse">
            <stop stop-color="#E65F27">
                <animate attributeName="offset" values="0;0.2;0.5" dur="6s" />

            </stop>
            <stop offset="1" stop-color="#8A3A19">
                <animate attributeName="offset" values="0.5;0.7;0.8;1" dur="6s" />

            </stop>
        </linearGradient>
        <linearGradient id="paint1_linear_104_11" x1="960" y1="576" x2="960" y2="1043.36" gradientUnits="userSpaceOnUse">
            <stop stop-color="#330C07">
                <animate attributeName="offset" values="0;0.2;0.5" dur="6s" />
            </stop>
            <stop offset="0.837308" stop-color="#A82619">

                <animate attributeName="offset" values="0.5;0.7;0.8;1" dur="6s" />
            </stop>
        </linearGradient>
    </defs> -->
</svg>